<?xml version="1.0" encoding="iso-8859-1"?>
<!-- Generator: Adobe Illustrator 19.0.0, SVG Export Plug-In . SVG Version: 6.00 Build 0)  -->
<svg version="1.1" id="Layer_1" xmlns="http://www.w3.org/2000/svg" xmlns:xlink="http://www.w3.org/1999/xlink" x="0px" y="0px"
	 viewBox="0 0 512.002 512.002" style="enable-background:new 0 0 512.002 512.002;" xml:space="preserve">
<g>
	<path style="fill:#3C1146;" d="M355.842,194.383c-3.348,0-6.697-1.277-9.251-3.832c-5.109-5.109-5.109-13.393,0-18.503
		l86.388-86.388c5.109-5.109,13.393-5.109,18.503,0c5.109,5.109,5.109,13.393,0,18.503l-86.388,86.388
		C362.539,193.106,359.19,194.383,355.842,194.383z"/>
	<path style="fill:#3C1146;" d="M275.12,236.484c-3.609,0-7.202-1.485-9.787-4.396c-4.797-5.403-4.307-13.671,1.096-18.469
		l13.389-11.888c-12.32-33.835-4.192-72.091,21.608-97.891l74.865-74.866c5.109-5.107,13.393-5.107,18.503,0
		c5.109,5.109,5.109,13.393,0,18.503l-74.865,74.865c-20.281,20.281-25.367,51.291-12.656,77.165
		c2.594,5.281,1.345,11.645-3.055,15.551l-20.417,18.127C281.311,235.396,278.21,236.484,275.12,236.484z"/>
	<path style="fill:#3C1146;" d="M315.897,272.684c-3.09,0-6.191-1.087-8.683-3.299c-5.402-4.797-5.892-13.067-1.095-18.47
		l15.972-17.987c3.908-4.398,10.271-5.648,15.55-3.055c25.872,12.707,56.882,7.622,77.161-12.659l74.865-74.865
		c5.109-5.109,13.393-5.109,18.503,0c5.109,5.109,5.109,13.393,0,18.503l-74.865,74.865c-25.796,25.799-64.051,33.928-97.886,21.611
		l-9.733,10.962C323.099,271.199,319.505,272.684,315.897,272.684z"/>
	<path style="fill:#3C1146;" d="M106.283,486.859c-1.176,0-2.356-0.037-3.538-0.111c-16.05-1.009-30.935-8.905-40.837-21.666
		c-6.214-8.008-10.109-17.555-11.263-27.612c-1.983-17.279,3.896-34.212,16.129-46.452c1.071-1.066,2.126-2.038,3.241-2.988
		l76.555-67.98c5.402-4.797,13.671-4.308,18.469,1.096c4.797,5.402,4.307,13.671-1.096,18.469l-76.661,68.074
		c-0.076,0.067-0.152,0.133-0.229,0.199c-0.623,0.527-1.21,1.066-1.796,1.65c-6.632,6.635-9.701,15.505-8.617,24.95
		c0.608,5.297,2.661,10.33,5.939,14.553c5.378,6.931,13.123,11.048,21.806,11.594c8.648,0.546,17.122-2.653,23.24-8.771
		c0.555-0.552,1.09-1.133,1.66-1.801c0.056-0.067,0.114-0.132,0.171-0.198l65.146-73.366c4.797-5.402,13.067-5.892,18.469-1.096
		c5.403,4.797,5.894,13.067,1.096,18.469l-65.065,73.274c-1.007,1.176-1.991,2.24-3.002,3.246
		C135.536,480.956,121.18,486.859,106.283,486.859z"/>
</g>
<path style="fill:#D4A8B4;" d="M397.613,402.097L192.738,220.253c15.97-30.757,10.38-68.292-14.49-93.162
	C145.602,94.445,106.38,74.953,73.328,74.953c-17.805,0-32.922,5.707-43.711,16.492c-15.679,15.679-20.394,39.873-13.284,68.125
	c6.854,27.212,24.229,55.806,48.93,80.506c15.08,15.08,35.134,23.386,56.464,23.386c12.833,0,25.401-3.061,36.693-8.9
	l181.849,204.881c0.738,0.871,1.47,1.664,2.221,2.419c7.689,7.683,17.902,11.914,28.77,11.914c10.868,0,21.086-4.231,28.77-11.914
	c15.864-15.864,15.864-41.674,0-57.538C399.276,403.567,398.483,402.84,397.613,402.097L397.613,402.097z"/>
<path style="fill:#3C1146;" d="M371.259,486.859c-14.358,0-27.859-5.591-38.018-15.744c-1.018-1.022-1.945-2.029-2.855-3.097
	L154.988,270.407c-10.573,4.035-21.9,6.138-33.264,6.138c-24.825,0-48.162-9.667-65.715-27.217
	c-26.344-26.344-44.941-57.086-52.366-86.562c-8.28-32.897-2.343-61.51,16.718-80.57c13.302-13.297,31.617-20.324,52.963-20.324
	c36.443,0,79.123,20.923,114.17,55.97c26.33,26.33,34.25,65.011,21.11,99.006l197.599,175.385c1.132,0.968,2.148,1.909,3.104,2.873
	c10.112,10.112,15.699,23.614,15.699,37.988c0,14.374-5.586,27.878-15.729,38.021C399.124,481.267,385.622,486.859,371.259,486.859z
	 M158.415,241.48c3.651,0,7.241,1.527,9.79,4.398l181.847,204.879c0.068,0.077,0.136,0.156,0.203,0.234
	c0.481,0.569,0.973,1.104,1.504,1.638c5.195,5.192,12.129,8.064,19.5,8.064c7.375,0,14.307-2.87,19.518-8.082
	c5.202-5.202,8.067-12.134,8.067-19.519c0-7.385-2.865-14.316-8.067-19.518c-0.504-0.508-1.034-0.994-1.651-1.521
	c-0.067-0.056-0.132-0.114-0.198-0.171L184.054,230.038c-4.482-3.978-5.688-10.494-2.927-15.813
	c13.441-25.886,8.566-57.185-12.13-77.882c-30.248-30.248-66.012-48.306-95.669-48.306c-14.259,0-26.177,4.379-34.463,12.663
	c-12.292,12.291-15.788,32.065-9.845,55.679c6.286,24.958,22.443,51.399,45.493,74.449c12.61,12.609,29.378,19.553,47.214,19.553
	c10.664,0,21.274-2.572,30.684-7.439C154.315,241.957,156.375,241.48,158.415,241.48z"/>
<g>
</g>
<g>
</g>
<g>
</g>
<g>
</g>
<g>
</g>
<g>
</g>
<g>
</g>
<g>
</g>
<g>
</g>
<g>
</g>
<g>
</g>
<g>
</g>
<g>
</g>
<g>
</g>
<g>
</g>
</svg>
